<svg width="136" height="48" viewBox="0 0 136 48" fill="none" xmlns="http://www.w3.org/2000/svg">
<g clip-path="url(#clip0_89_132)">
<path d="M15.9182 12.9134C17.6996 11.9361 18.4304 9.81881 18.4533 8.63218C18.5903 3.60644 15.1646 0.581684 10.4599 0.581684H0.570953V26.9436H10.6198C16.0781 26.9436 18.7502 24.3842 19.3896 20.1262C19.7094 18.1252 19.2755 14.7515 15.9182 12.9134ZM6.82862 6.21238H10.4371C13.5659 6.21238 13.4517 10.9124 10.4371 10.9124H6.82862V6.21238ZM10.4599 21.1035H6.82862V15.7054H10.4371C14.1369 15.7054 14.2054 21.1035 10.4371 21.1035H10.4599Z" fill="#0057E2"/>
<path d="M46.1789 6.11931L48.1201 2.81535L46.7955 0.581684H28.9132V6.77079H38.7793L28.1367 24.5005L29.2786 26.9668H29.644H47.5263V20.8243L37.5232 20.8941L46.1789 6.11931Z" fill="#0057E2"/>
<path d="M26.9948 18.451V10.9124V0.581684H24.848H20.7828V26.9668H24.7795H26.9948V18.451Z" fill="#0057E2"/>
<path d="M48.3942 33.9703V46.5812H52.5507V33.9703H56.8672V29.9916H51.5915H44.0778V31.1084V33.9703H48.3942Z" fill="#253646"/>
<path d="M124.651 23.3371C124.651 25.8733 124.445 28.2233 124.034 30.3871C123.966 30.7594 123.874 31.1084 123.806 31.4574C123.646 32.1554 123.463 32.8535 123.235 33.5049C123.029 34.1797 122.801 34.8079 122.527 35.4361C122.139 36.3668 121.705 37.2743 121.225 38.1119C120.906 38.6703 120.54 39.2287 120.175 39.7406C119.444 40.7876 118.622 41.7183 117.731 42.5094C117.274 42.9049 116.817 43.254 116.338 43.603C115.858 43.952 115.356 44.2312 114.831 44.4871C114.579 44.6267 114.305 44.7431 114.031 44.8594C112.136 45.6738 109.989 46.0693 107.636 46.0693H107.34C106.7 45.2549 106.061 44.4173 105.421 43.603C104.896 42.9049 104.348 42.2069 103.8 41.5322C103.594 41.2762 103.594 41.1134 103.8 40.8574C104.142 40.4153 104.508 39.95 104.85 39.5079C105.695 38.4376 106.517 37.3441 107.362 36.2738C107.454 36.2738 107.545 36.297 107.636 36.297C107.956 36.297 108.253 36.2738 108.55 36.2505C109.418 36.1574 110.217 35.9015 110.925 35.5059C113.734 33.9238 115.127 29.9218 115.127 23.5465C115.127 17.1713 113.734 13.0297 110.925 11.2847C110.217 10.8426 109.441 10.5634 108.55 10.4238C108.253 10.3772 107.956 10.354 107.636 10.3307C107.317 10.3307 107.02 10.3307 106.723 10.3772C104.964 10.5866 103.571 11.3777 102.521 12.7738C101.333 14.3792 100.579 16.7757 100.305 19.9401C99.5061 18.3812 98.4784 16.9851 97.1994 15.7985C95.9205 14.5886 94.3675 13.5881 92.5861 12.7738C92.4719 12.7272 92.3349 12.6574 92.2207 12.6109C92.9287 10.4936 93.8879 8.58564 95.0755 6.9104C97.4735 3.4901 100.717 1.46584 104.713 0.814358C105.033 0.767823 105.33 0.721289 105.65 0.698021C106.289 0.628219 106.951 0.604952 107.614 0.604952C108.276 0.604952 108.938 0.604952 109.578 0.698021C111.176 0.837625 112.638 1.18664 113.963 1.69852C114.511 1.90792 115.013 2.1406 115.516 2.39654C116.018 2.65248 116.475 2.95495 116.932 3.28069C117.388 3.60644 117.822 3.95545 118.233 4.35099C119.056 5.11881 119.809 6.00297 120.472 7.00347C120.814 7.51535 121.111 8.0505 121.408 8.60891C123.372 12.2619 124.423 17.1713 124.651 23.3371Z" fill="#253646"/>
<path d="M90.1196 26.9668H95.9662C97.1995 26.9668 98.3185 27.153 99.3462 27.4787C99.1635 21.6851 96.5371 17.6366 91.4671 15.3099C90.6677 14.9376 89.7999 14.6119 88.8863 14.3327C88.4067 14.1931 87.9271 14.0535 87.4247 13.9371C86.9222 13.8208 86.4198 13.7045 85.8945 13.6114L90.3023 7.09654L94.7101 0.581684H84.0675L78.0153 9.93515L73.4249 16.9851C73.4401 16.9851 73.4553 16.9851 73.4705 16.9851C76.4624 19.0792 78.3122 21.9644 78.9974 25.5475C79.2714 24.896 79.6825 24.3376 80.2078 23.8723C80.3677 23.7327 80.5504 23.5931 80.7331 23.4767C80.7788 23.4302 80.8473 23.4069 80.893 23.3604C81.03 23.2673 81.1442 23.1975 81.2812 23.1277C81.3497 23.0812 81.3954 23.0579 81.4639 23.0347C81.6009 22.9649 81.7608 22.8951 81.8978 22.8252C81.9435 22.8252 81.9892 22.7787 82.0349 22.7787C82.2404 22.7089 82.4231 22.6391 82.6287 22.5926C82.6743 22.5926 82.72 22.5926 82.7657 22.5926C82.9256 22.546 83.0854 22.5228 83.2453 22.4995C83.3138 22.4995 83.3823 22.4995 83.4508 22.4995C83.6107 22.4995 83.7706 22.4995 83.9304 22.453H84.2273C84.3644 22.453 84.5014 22.453 84.6384 22.453H84.8668C85.118 22.453 85.3693 22.4995 85.6205 22.546C88.1098 23.3371 89.5715 24.7797 89.9369 26.9901H90.1196V26.9668Z" fill="#253646"/>
<path d="M76.4623 26.9668C76.4167 26.548 76.3481 26.1525 76.2568 25.7802C76.1654 25.3847 76.0741 25.0124 75.9371 24.6634C75.6858 23.9421 75.3889 23.2441 75.0007 22.6158C74.4297 21.6619 73.6989 20.801 72.8311 20.0564C72.5342 19.8005 72.2373 19.5678 71.8947 19.3351C71.6206 19.149 71.3237 18.9396 71.0268 18.7767C70.4102 18.4045 69.7479 18.0787 69.0399 17.7995C68.6745 17.6599 68.3091 17.5203 67.9437 17.3807L71.4836 12.797L75.0007 8.2599V0.581684H51.5458L51.6144 0.698021L52.8705 2.81535L51.6144 4.95594L49.0108 9.42327H63.7643L56.4104 18.9163L59.9503 24.2678H61.8459C64.4494 24.6634 66.1395 25.5475 66.8703 26.9436H76.4623V26.9668Z" fill="#253646"/>
<path d="M7.07984 30.0149H0.570953V46.5812H4.68183V41.7416H7.10268C11.0309 41.7416 13.0406 38.8099 13.0406 35.8782C13.0406 32.9465 11.0537 30.0149 7.07984 30.0149ZM7.07984 38.0188H4.70467V33.9238H7.07984C9.56921 33.9238 9.56921 38.0421 7.07984 38.0188Z" fill="#253646"/>
<path d="M21.9247 30.0149H18.1792L12.5154 46.5812H16.9231L17.928 43.254H22.2673L23.3178 46.5812H27.7256L21.9247 30.0149ZM18.8415 39.5312L20.0291 34.6916H20.1433L21.2624 39.5312H18.8415Z" fill="#253646"/>
<path d="M39.2132 40.904C41.2001 40.2757 42.4106 38.554 42.4106 35.4827C42.3649 33.3886 41.5884 31.9926 40.3551 31.1317C39.3046 30.3871 37.9114 30.0381 36.3584 30.0381H29.8495V46.6045H34.0289V41.346H34.7598L38.5281 46.6045H43.6438L39.2132 40.904ZM36.427 37.7163H34.0289V33.9238H36.4498C39.0305 33.9238 39.0305 37.7163 36.427 37.7163Z" fill="#253646"/>
<path d="M68.0351 37.5302C68.0579 37.5302 68.469 40.3921 68.4918 40.3921H68.3776C68.3776 40.4153 67.0073 37.0881 67.0073 37.0881L63.0792 30.0149H59.1738V46.5812H63.2847V39.95L62.7594 36.7391H62.8736C62.8736 36.7158 64.2896 40.0431 64.2896 40.0431L67.9665 46.5812H72.1231V30.0149H68.0351V37.5302Z" fill="#253646"/>
<path d="M102.247 45.3248L98.7981 40.904C100.762 40.2757 101.995 38.554 101.995 35.4827C101.973 34.8777 101.904 34.3426 101.767 33.8307C101.379 32.295 100.442 31.248 99.1864 30.6663C98.25 30.2243 97.1538 30.0149 95.9433 30.0149H89.4344V46.5812H93.591V41.3228H94.3218L98.0901 46.5812H103.229L102.247 45.3248ZM97.9303 36.204C97.7932 36.8554 97.3593 37.4371 96.5828 37.6465C96.4229 37.6931 96.2402 37.7163 96.0347 37.7163H93.6138V33.9238H96.0347C96.5143 33.9238 96.9254 34.0634 97.2223 34.2728C97.5192 34.4822 97.7476 34.7847 97.8617 35.1104C97.9759 35.4594 97.9988 35.855 97.9303 36.204Z" fill="#253646"/>
<path d="M75.3204 46.5812H86.4883H86.6482V42.6257H86.4883H79.477V40.1594H86.0772V36.5297H79.477V33.947H86.4883H86.6482V30.0149H86.4883H75.3204V46.5812Z" fill="#253646"/>
<path d="M124.286 1.74505V5.44456H123.075V1.74505H121.819V0.581684H125.564V1.74505H124.286Z" fill="#253646"/>
<path d="M126.021 0.581684H127.232L128.237 2.95495L129.241 0.581684H130.452V5.44456H129.241V4.04852L129.31 3.07129H129.264L128.648 4.74654H127.825L127.186 3.07129H127.14L127.209 4.04852V5.44456H125.998V0.581684H126.021Z" fill="#253646"/>
</g>
<defs>
<clipPath id="clip0_89_132">
<rect width="131" height="47" fill="white"/>
</clipPath>
</defs>
</svg>
